<mxfile host="app.diagrams.net" agent="Mozilla/5.0 (Windows NT 10.0; Win64; x64) AppleWebKit/537.36 (KHTML, like Gecko) Chrome/140.0.0.0 Safari/537.36" version="28.2.5">
  <diagram name="Page-1" id="ozkKnRUouKXmn6NGIdq9">
    <mxGraphModel dx="941" dy="648" grid="1" gridSize="10" guides="1" tooltips="1" connect="1" arrows="1" fold="1" page="1" pageScale="1" pageWidth="850" pageHeight="1100" math="0" shadow="0">
      <root>
        <mxCell id="0" />
        <mxCell id="1" parent="0" />
        <mxCell id="GPErukWFqLByyqK_-X7k-35" value="&lt;p style=&quot;margin:0px;margin-top:4px;text-align:center;&quot;&gt;&lt;b&gt;&lt;font style=&quot;font-size: 16px;&quot;&gt;UDP-Server (PC)&lt;/font&gt;&lt;/b&gt;&lt;/p&gt;" style="verticalAlign=top;align=left;overflow=fill;html=1;whiteSpace=wrap;fillColor=#fff2cc;strokeColor=#d6b656;" vertex="1" parent="1">
          <mxGeometry x="440" y="90" width="240" height="670" as="geometry" />
        </mxCell>
        <mxCell id="GPErukWFqLByyqK_-X7k-34" value="&lt;p style=&quot;margin:0px;margin-top:4px;text-align:center;&quot;&gt;&lt;b&gt;&lt;font style=&quot;font-size: 16px;&quot;&gt;UDP-Client (ESP32-C3)&lt;/font&gt;&lt;/b&gt;&lt;/p&gt;" style="verticalAlign=top;align=left;overflow=fill;html=1;whiteSpace=wrap;fillColor=#fff2cc;strokeColor=#d6b656;" vertex="1" parent="1">
          <mxGeometry x="200" y="90" width="240" height="670" as="geometry" />
        </mxCell>
        <mxCell id="GPErukWFqLByyqK_-X7k-5" value="" style="edgeStyle=orthogonalEdgeStyle;rounded=0;orthogonalLoop=1;jettySize=auto;html=1;" edge="1" parent="1" source="GPErukWFqLByyqK_-X7k-3" target="GPErukWFqLByyqK_-X7k-4">
          <mxGeometry relative="1" as="geometry" />
        </mxCell>
        <mxCell id="GPErukWFqLByyqK_-X7k-3" value="Socket()" style="rounded=1;whiteSpace=wrap;html=1;fillColor=#f8cecc;strokeColor=#b85450;" vertex="1" parent="1">
          <mxGeometry x="240" y="130" width="120" height="40" as="geometry" />
        </mxCell>
        <mxCell id="GPErukWFqLByyqK_-X7k-8" value="" style="edgeStyle=orthogonalEdgeStyle;rounded=0;orthogonalLoop=1;jettySize=auto;html=1;" edge="1" parent="1" source="GPErukWFqLByyqK_-X7k-4" target="GPErukWFqLByyqK_-X7k-7">
          <mxGeometry relative="1" as="geometry" />
        </mxCell>
        <mxCell id="GPErukWFqLByyqK_-X7k-4" value="Connect()" style="rounded=1;whiteSpace=wrap;html=1;fillColor=#f8cecc;strokeColor=#b85450;" vertex="1" parent="1">
          <mxGeometry x="240" y="210" width="120" height="40" as="geometry" />
        </mxCell>
        <mxCell id="GPErukWFqLByyqK_-X7k-19" value="" style="edgeStyle=orthogonalEdgeStyle;rounded=0;orthogonalLoop=1;jettySize=auto;html=1;" edge="1" parent="1" source="GPErukWFqLByyqK_-X7k-7" target="GPErukWFqLByyqK_-X7k-18">
          <mxGeometry relative="1" as="geometry" />
        </mxCell>
        <mxCell id="GPErukWFqLByyqK_-X7k-7" value="Send (&quot;Open the light&quot;)" style="ellipse;whiteSpace=wrap;html=1;fillColor=#dae8fc;strokeColor=#6c8ebf;" vertex="1" parent="1">
          <mxGeometry x="240" y="440" width="120" height="50" as="geometry" />
        </mxCell>
        <mxCell id="GPErukWFqLByyqK_-X7k-9" value="" style="edgeStyle=orthogonalEdgeStyle;rounded=0;orthogonalLoop=1;jettySize=auto;html=1;" edge="1" parent="1" source="GPErukWFqLByyqK_-X7k-10" target="GPErukWFqLByyqK_-X7k-11">
          <mxGeometry relative="1" as="geometry" />
        </mxCell>
        <mxCell id="GPErukWFqLByyqK_-X7k-10" value="Socket()" style="rounded=1;whiteSpace=wrap;html=1;fillColor=#f8cecc;strokeColor=#b85450;" vertex="1" parent="1">
          <mxGeometry x="480" y="130" width="120" height="40" as="geometry" />
        </mxCell>
        <mxCell id="GPErukWFqLByyqK_-X7k-13" value="" style="edgeStyle=orthogonalEdgeStyle;rounded=0;orthogonalLoop=1;jettySize=auto;html=1;" edge="1" parent="1" source="GPErukWFqLByyqK_-X7k-11" target="GPErukWFqLByyqK_-X7k-12">
          <mxGeometry relative="1" as="geometry" />
        </mxCell>
        <mxCell id="GPErukWFqLByyqK_-X7k-11" value="Connect()" style="rounded=1;whiteSpace=wrap;html=1;fillColor=#f8cecc;strokeColor=#b85450;" vertex="1" parent="1">
          <mxGeometry x="480" y="210" width="120" height="40" as="geometry" />
        </mxCell>
        <mxCell id="GPErukWFqLByyqK_-X7k-15" value="" style="edgeStyle=orthogonalEdgeStyle;rounded=0;orthogonalLoop=1;jettySize=auto;html=1;" edge="1" parent="1" source="GPErukWFqLByyqK_-X7k-12" target="GPErukWFqLByyqK_-X7k-14">
          <mxGeometry relative="1" as="geometry" />
        </mxCell>
        <mxCell id="GPErukWFqLByyqK_-X7k-12" value="listen()" style="rounded=1;whiteSpace=wrap;html=1;fillColor=#f8cecc;strokeColor=#b85450;" vertex="1" parent="1">
          <mxGeometry x="480" y="290" width="120" height="40" as="geometry" />
        </mxCell>
        <mxCell id="GPErukWFqLByyqK_-X7k-23" style="edgeStyle=orthogonalEdgeStyle;rounded=0;orthogonalLoop=1;jettySize=auto;html=1;entryX=0.5;entryY=0;entryDx=0;entryDy=0;" edge="1" parent="1" source="GPErukWFqLByyqK_-X7k-14" target="GPErukWFqLByyqK_-X7k-20">
          <mxGeometry relative="1" as="geometry" />
        </mxCell>
        <mxCell id="GPErukWFqLByyqK_-X7k-14" value="accept()" style="rounded=1;whiteSpace=wrap;html=1;fillColor=#f8cecc;strokeColor=#b85450;" vertex="1" parent="1">
          <mxGeometry x="480" y="370" width="120" height="40" as="geometry" />
        </mxCell>
        <mxCell id="GPErukWFqLByyqK_-X7k-16" value="" style="endArrow=classic;html=1;rounded=0;entryX=0.5;entryY=0;entryDx=0;entryDy=0;exitX=0.5;exitY=1;exitDx=0;exitDy=0;" edge="1" parent="1" source="GPErukWFqLByyqK_-X7k-4" target="GPErukWFqLByyqK_-X7k-14">
          <mxGeometry width="50" height="50" relative="1" as="geometry">
            <mxPoint x="400" y="270" as="sourcePoint" />
            <mxPoint x="450" y="220" as="targetPoint" />
          </mxGeometry>
        </mxCell>
        <mxCell id="GPErukWFqLByyqK_-X7k-17" value="" style="endArrow=classic;html=1;rounded=0;entryX=0.5;entryY=0;entryDx=0;entryDy=0;exitX=0.5;exitY=1;exitDx=0;exitDy=0;" edge="1" parent="1" source="GPErukWFqLByyqK_-X7k-14" target="GPErukWFqLByyqK_-X7k-7">
          <mxGeometry width="50" height="50" relative="1" as="geometry">
            <mxPoint x="490" y="560" as="sourcePoint" />
            <mxPoint x="540" y="510" as="targetPoint" />
          </mxGeometry>
        </mxCell>
        <mxCell id="GPErukWFqLByyqK_-X7k-29" style="edgeStyle=orthogonalEdgeStyle;rounded=0;orthogonalLoop=1;jettySize=auto;html=1;entryX=0.5;entryY=0;entryDx=0;entryDy=0;" edge="1" parent="1" source="GPErukWFqLByyqK_-X7k-18" target="GPErukWFqLByyqK_-X7k-28">
          <mxGeometry relative="1" as="geometry" />
        </mxCell>
        <mxCell id="GPErukWFqLByyqK_-X7k-18" value="Send (&quot;Light state: OFF/ON&quot;)" style="ellipse;whiteSpace=wrap;html=1;fillColor=#dae8fc;strokeColor=#6c8ebf;" vertex="1" parent="1">
          <mxGeometry x="240" y="530" width="120" height="50" as="geometry" />
        </mxCell>
        <mxCell id="GPErukWFqLByyqK_-X7k-27" value="" style="edgeStyle=orthogonalEdgeStyle;rounded=0;orthogonalLoop=1;jettySize=auto;html=1;" edge="1" parent="1" source="GPErukWFqLByyqK_-X7k-20" target="GPErukWFqLByyqK_-X7k-26">
          <mxGeometry relative="1" as="geometry" />
        </mxCell>
        <mxCell id="GPErukWFqLByyqK_-X7k-20" value="read()" style="ellipse;whiteSpace=wrap;html=1;fillColor=#dae8fc;strokeColor=#6c8ebf;" vertex="1" parent="1">
          <mxGeometry x="480" y="610" width="120" height="50" as="geometry" />
        </mxCell>
        <mxCell id="GPErukWFqLByyqK_-X7k-21" value="" style="endArrow=classic;html=1;rounded=0;entryX=0.5;entryY=0;entryDx=0;entryDy=0;exitX=0.5;exitY=1;exitDx=0;exitDy=0;" edge="1" parent="1" source="GPErukWFqLByyqK_-X7k-7" target="GPErukWFqLByyqK_-X7k-20">
          <mxGeometry width="50" height="50" relative="1" as="geometry">
            <mxPoint x="350" y="520" as="sourcePoint" />
            <mxPoint x="400" y="470" as="targetPoint" />
          </mxGeometry>
        </mxCell>
        <mxCell id="GPErukWFqLByyqK_-X7k-22" value="" style="endArrow=classic;html=1;rounded=0;entryX=0.5;entryY=0;entryDx=0;entryDy=0;exitX=0.5;exitY=1;exitDx=0;exitDy=0;" edge="1" parent="1" source="GPErukWFqLByyqK_-X7k-18" target="GPErukWFqLByyqK_-X7k-20">
          <mxGeometry width="50" height="50" relative="1" as="geometry">
            <mxPoint x="380" y="620" as="sourcePoint" />
            <mxPoint x="620" y="740" as="targetPoint" />
          </mxGeometry>
        </mxCell>
        <mxCell id="GPErukWFqLByyqK_-X7k-24" style="edgeStyle=orthogonalEdgeStyle;rounded=0;orthogonalLoop=1;jettySize=auto;html=1;entryX=0;entryY=0.5;entryDx=0;entryDy=0;dashed=1;dashPattern=8 8;" edge="1" parent="1" source="GPErukWFqLByyqK_-X7k-18" target="GPErukWFqLByyqK_-X7k-18">
          <mxGeometry relative="1" as="geometry">
            <Array as="points">
              <mxPoint x="270" y="600" />
              <mxPoint x="220" y="600" />
              <mxPoint x="220" y="555" />
            </Array>
          </mxGeometry>
        </mxCell>
        <mxCell id="GPErukWFqLByyqK_-X7k-25" value="repeat" style="text;strokeColor=none;align=center;fillColor=none;html=1;verticalAlign=middle;whiteSpace=wrap;rounded=0;" vertex="1" parent="1">
          <mxGeometry x="210" y="590" width="60" height="30" as="geometry" />
        </mxCell>
        <mxCell id="GPErukWFqLByyqK_-X7k-26" value="close" style="rounded=1;whiteSpace=wrap;html=1;fillColor=#f8cecc;strokeColor=#b85450;" vertex="1" parent="1">
          <mxGeometry x="480" y="690" width="120" height="40" as="geometry" />
        </mxCell>
        <mxCell id="GPErukWFqLByyqK_-X7k-28" value="close" style="rounded=1;whiteSpace=wrap;html=1;fillColor=#f8cecc;strokeColor=#b85450;" vertex="1" parent="1">
          <mxGeometry x="240" y="690" width="120" height="40" as="geometry" />
        </mxCell>
      </root>
    </mxGraphModel>
  </diagram>
</mxfile>
